<svg width="56" height="62" viewBox="0 0 56 62" fill="none" xmlns="http://www.w3.org/2000/svg">
<path d="M22.9606 3.52489L34.517 58.694C34.766 59.8829 33.8587 61 32.644 61C31.7481 61 30.9721 60.3784 30.7765 59.5041L22.572 22.8294C22.3675 21.9157 21.5565 21.2661 20.6202 21.2661H4.98264C3.17955 21.2661 2.29716 19.0677 3.59985 17.8211L19.6203 2.48998C20.7541 1.40493 22.6388 1.98886 22.9606 3.52489Z" fill="#FFA800" stroke="#FFA800"/>
<path d="M38.5405 61L34 40.6923L40.2432 39L41.9459 50.2821L48.1892 44.641L55 46.3333V61H50.4595L48.1892 57.6154V51.4103L38.5405 61Z" fill="#FFA800" stroke="#FFA800"/>
<path d="M37.5 16L54 20.95L50.15 29.2L41.35 23.7L46.3 29.2V35.8H43.55L33.1 38V35.8L34.75 32.5L39.7 30.85L32 20.95L37.5 16Z" fill="#FFA800" stroke="#FFA800"/>
<path d="M27.9132 55.9882C25.8292 56.4865 23.6674 56.5695 21.5513 56.2323C19.4352 55.8952 17.4062 55.1446 15.5802 54.0233C13.7542 52.9021 12.1669 51.4321 10.9089 49.6974C9.65102 47.9627 8.74708 45.9972 8.24875 43.9132C7.75042 41.8291 7.66744 39.6674 8.00457 37.5512C8.3417 35.4351 9.09233 33.4062 10.2136 31.5801C11.3349 29.7541 12.8048 28.1668 14.5395 26.9089C16.2742 25.651 18.2397 24.747 20.3237 24.2487L24.1185 40.1184L27.9132 55.9882Z" fill="#FFA800"/>
<path d="M14.946 42.9252C15.0849 43.4457 15.1198 43.9884 15.0489 44.5225C14.978 45.0565 14.8026 45.5713 14.5327 46.0375C14.2628 46.5038 13.9038 46.9123 13.476 47.2397C13.0482 47.5672 12.5602 47.8072 12.0397 47.946C11.5192 48.0849 10.9764 48.1198 10.4424 48.0489C9.90835 47.978 9.39353 47.8026 8.9273 47.5327C8.46107 47.2628 8.05256 46.9038 7.7251 46.476C7.39764 46.0482 7.15764 45.5602 7.0188 45.0397L10.9824 43.9824L14.946 42.9252Z" fill="black"/>
<circle cx="12" cy="39" r="3" fill="white"/>
<circle cx="19" cy="38" r="3" fill="white"/>
<circle cx="2" cy="2" r="2" transform="matrix(1 0 0 -1 10 41)" fill="black"/>
<circle cx="2" cy="2" r="2" transform="matrix(1 0 0 -1 17 40)" fill="black"/>
<circle cx="0.5" cy="0.5" r="0.5" transform="matrix(1 0 0 -1 10 39)" fill="white"/>
<circle cx="0.5" cy="0.5" r="0.5" transform="matrix(1 0 0 -1 17 38)" fill="white"/>
</svg>
